<?xml version="1.0" encoding="UTF-8" standalone="no"?>
<svg
   xmlns:dc="http://purl.org/dc/elements/1.1/"
   xmlns:cc="http://creativecommons.org/ns#"
   xmlns:rdf="http://www.w3.org/1999/02/22-rdf-syntax-ns#"
   xmlns:svg="http://www.w3.org/2000/svg"
   xmlns="http://www.w3.org/2000/svg"
   xmlns:xlink="http://www.w3.org/1999/xlink"
   width="233.67009"
   height="120.65007"
   id="svg11397"
   version="1.1"
   viewBox="0 0 233.67009 120.65007">
  <defs
     id="defs11399">
    <clipPath
       clipPathUnits="userSpaceOnUse"
       id="clipPath4197">
      <rect
         style="opacity:1;fill:#666666;fill-opacity:1;stroke:none;stroke-width:1;stroke-linecap:round;stroke-linejoin:round;stroke-miterlimit:4;stroke-dasharray:none;stroke-opacity:0.47398843"
         id="rect4199"
         width="354"
         height="83"
         x="-45"
         y="326.36221" />
    </clipPath>
    <clipPath
       clipPathUnits="userSpaceOnUse"
       id="clipPath9541">
      <rect
         style="opacity:1;fill:#c8b7b7;fill-opacity:0.96984923;stroke:#aa6060;stroke-width:0.118;stroke-linecap:round;stroke-linejoin:round;stroke-miterlimit:4;stroke-dasharray:none;stroke-opacity:1"
         id="rect9543"
         width="1082.7572"
         height="559.05627"
         x="9015.6113"
         y="968.39325" />
    </clipPath>
    <clipPath
       clipPathUnits="userSpaceOnUse"
       id="clipPath8330">
      <rect
         style="opacity:1;fill:#c87137;fill-opacity:1;stroke:none;stroke-width:0.2;stroke-linecap:round;stroke-linejoin:round;stroke-miterlimit:4;stroke-dasharray:none;stroke-opacity:1"
         id="rect8332"
         width="1350"
         height="612.5"
         x="8962.5"
         y="952.36218" />
    </clipPath>
    <clipPath
       clipPathUnits="userSpaceOnUse"
       id="clipPath8326">
      <rect
         style="opacity:1;fill:#c87137;fill-opacity:1;stroke:none;stroke-width:0.2;stroke-linecap:round;stroke-linejoin:round;stroke-miterlimit:4;stroke-dasharray:none;stroke-opacity:1"
         id="rect8328"
         width="1350"
         height="612.5"
         x="3501.9138"
         y="1871.601" />
    </clipPath>
    <radialGradient
       xlink:href="#linearGradient9286"
       id="radialGradient9310"
       cx="3830.3967"
       cy="2387.3025"
       fx="3830.3967"
       fy="2387.3025"
       r="234.14996"
       gradientTransform="matrix(1,0,0,0.90265868,0,232.38318)"
       gradientUnits="userSpaceOnUse" />
    <linearGradient
       id="linearGradient9286">
      <stop
         style="stop-color:#aa6060;stop-opacity:1;"
         offset="0"
         id="stop9288" />
      <stop
         style="stop-color:#aa6060;stop-opacity:0;"
         offset="1"
         id="stop9290" />
    </linearGradient>
    <radialGradient
       xlink:href="#linearGradient9286"
       id="radialGradient9308"
       cx="3905.5232"
       cy="2386.3025"
       fx="3905.5232"
       fy="2386.3025"
       r="234.15321"
       gradientTransform="matrix(1,0,0,0.90691684,0,222.12457)"
       gradientUnits="userSpaceOnUse" />
    <radialGradient
       xlink:href="#linearGradient9286"
       id="radialGradient9306"
       cx="4000.5264"
       cy="2386.4998"
       fx="4000.5264"
       fy="2386.4998"
       r="243.14975"
       gradientTransform="matrix(1,0,0,0.87254797,0,304.16424)"
       gradientUnits="userSpaceOnUse" />
    <radialGradient
       xlink:href="#linearGradient9286"
       id="radialGradient9304"
       cx="4076.6819"
       cy="2386.5952"
       fx="4076.6819"
       fy="2386.5952"
       r="234.14851"
       gradientTransform="matrix(1,0,0,0.90568512,0,225.09143)"
       gradientUnits="userSpaceOnUse" />
    <radialGradient
       xlink:href="#linearGradient9286"
       id="radialGradient9302"
       cx="4156.3965"
       cy="2388.3013"
       fx="4156.3965"
       fy="2388.3013"
       r="234.15044"
       gradientTransform="matrix(1,0,0,0.89839099,0,242.67292)"
       gradientUnits="userSpaceOnUse" />
    <radialGradient
       xlink:href="#linearGradient9286"
       id="radialGradient9300"
       cx="4256.396"
       cy="2386.302"
       fx="4256.396"
       fy="2386.302"
       r="232.14975"
       gradientTransform="matrix(1,0,0,0.91474564,0,203.44266)"
       gradientUnits="userSpaceOnUse" />
    <radialGradient
       xlink:href="#linearGradient9286"
       id="radialGradient9294"
       cx="4403.3936"
       cy="2390.3032"
       fx="4403.3936"
       fy="2390.3032"
       r="241.1564"
       gradientTransform="matrix(1,0,0,0.88059105,0,285.42359)"
       gradientUnits="userSpaceOnUse" />
    <radialGradient
       xlink:href="#linearGradient9286"
       id="radialGradient9298"
       cx="4486.5142"
       cy="2386.3025"
       fx="4486.5142"
       fy="2386.3025"
       r="243.16228"
       gradientTransform="matrix(1,0,0,0.87331593,0,302.30651)"
       gradientUnits="userSpaceOnUse" />
    <radialGradient
       xlink:href="#linearGradient9286"
       id="radialGradient9296"
       cx="4580.5298"
       cy="2388.4971"
       fx="4580.5298"
       fy="2388.4971"
       r="243.15331"
       gradientTransform="matrix(1,0,0,0.86432135,0,324.06805)"
       gradientUnits="userSpaceOnUse" />
    <radialGradient
       xlink:href="#linearGradient9286"
       id="radialGradient9292"
       cx="4648.6846"
       cy="2387.2981"
       fx="4648.6846"
       fy="2387.2981"
       r="242.15161"
       gradientTransform="matrix(1,0,0,0.87284878,0,303.54787)"
       gradientUnits="userSpaceOnUse" />
  </defs>
  <metadata
     id="metadata11402">
    <rdf:RDF>
      <cc:Work
         rdf:about="">
        <dc:format>image/svg+xml</dc:format>
        <dc:type
           rdf:resource="http://purl.org/dc/dcmitype/StillImage" />
        <dc:title></dc:title>
      </cc:Work>
    </rdf:RDF>
  </metadata>
  <g
     id="layer1"
     transform="translate(22.811956,-530.85762)">
    <g
       transform="matrix(0.21581024,0,0,0.21581024,-1968.4732,321.86844)"
       id="g9545">
      <g
         clip-path="url(#clipPath9541)"
         id="g9512">
        <path
           style="opacity:0.872;fill:#e9c6af;fill-opacity:1;stroke:none;stroke-width:11;stroke-linecap:round;stroke-linejoin:round;stroke-miterlimit:4;stroke-dasharray:none;stroke-opacity:1"
           d="m 8847.6738,256.86719 0,1352.34181 1546.7972,0 0,-1352.34181 -1546.7972,0 z"
           id="rect7722"
           clip-path="url(#clipPath8330)"
           transform="matrix(0.84722222,0,0,1,1369.2708,0)" />
        <g
           id="g7724"
           style="font-style:normal;font-weight:normal;font-size:1250px;line-height:125%;font-family:sans-serif;letter-spacing:0px;word-spacing:0px;fill:#6c5353;fill-opacity:1;stroke:none;stroke-width:1px;stroke-linecap:butt;stroke-linejoin:miter;stroke-opacity:1"
           transform="matrix(1.0896739,0,0,1.0896739,5164.4759,-1148.2478)"
           clip-path="url(#clipPath8326)">
          <path
             id="path7726"
             d="m 3596.3009,2271.0165 0,-95.0174 47.5087,0 420.6068,422.6067 -127.2631,0 z"
             style="opacity:1;fill:#c0a899;fill-opacity:0.96984923;fill-rule:evenodd;stroke:url(#radialGradient9310);stroke-width:0.10828928;stroke-linecap:butt;stroke-linejoin:miter;stroke-miterlimit:4;stroke-dasharray:none;stroke-opacity:1" />
          <path
             style="opacity:1;fill:#c0a899;fill-opacity:0.96984923;fill-rule:evenodd;stroke:url(#radialGradient9308);stroke-width:0.10828928;stroke-linecap:butt;stroke-linejoin:miter;stroke-miterlimit:4;stroke-dasharray:none;stroke-opacity:1"
             d="m 3671.431,2271.0165 28,-97.0174 19.5087,0 420.6068,424.6067 -127.2631,0 z"
             id="path7728" />
          <path
             id="path7730"
             d="m 3757.431,2273.0165 1.0359,-98.6223 18.2583,0.052 -0.1816,43.8273 30.8874,-42.2748 17.166,-1.4476 418.9495,424.0543 -127.2631,0 z"
             style="opacity:1;fill:#c0a899;fill-opacity:0.96984923;fill-rule:evenodd;stroke:url(#radialGradient9306);stroke-width:0.10828928;stroke-linecap:butt;stroke-linejoin:miter;stroke-miterlimit:4;stroke-dasharray:none;stroke-opacity:1" />
          <path
             style="opacity:1;fill:#c0a899;fill-opacity:0.96984923;fill-rule:evenodd;stroke:url(#radialGradient9304);stroke-width:0.10828928;stroke-linecap:butt;stroke-linejoin:miter;stroke-miterlimit:4;stroke-dasharray:none;stroke-opacity:1"
             d="m 3842.5876,2273.0165 0,-97.0174 59.5087,-1.4141 408.6068,424.0208 -127.2631,0 z"
             id="path7732" />
          <path
             style="opacity:1;fill:#c0a899;fill-opacity:0.96984923;fill-rule:evenodd;stroke:url(#radialGradient9302);stroke-width:0.10828928;stroke-linecap:butt;stroke-linejoin:miter;stroke-miterlimit:4;stroke-dasharray:none;stroke-opacity:1"
             d="m 3922.3009,2273.0165 2,-95.0174 47.5087,2 418.6068,418.6067 -127.2631,0 z"
             id="path7734" />
          <path
             id="path7736"
             d="m 4024.3009,2273.0165 1,-44.5087 9,-8.5087 19.7075,-46 16.5825,0.4375 417.8255,424.1692 -129.2631,0 z"
             style="opacity:1;fill:#c0a899;fill-opacity:0.96984923;fill-rule:evenodd;stroke:url(#radialGradient9300);stroke-width:0.10828928;stroke-linecap:butt;stroke-linejoin:miter;stroke-miterlimit:4;stroke-dasharray:none;stroke-opacity:1" />
          <path
             style="opacity:1;fill:#c0a899;fill-opacity:0.96984923;fill-rule:evenodd;stroke:url(#radialGradient9294);stroke-width:0.10828928;stroke-linecap:butt;stroke-linejoin:miter;stroke-miterlimit:4;stroke-dasharray:none;stroke-opacity:1"
             d="m 4162.3009,2269.0165 5.7097,-13.863 c 39.7025,22.9332 74.365,-17.1442 1.2903,-41.4845 l 3.5,-14.4155 3.5,-21.2544 47.5087,2 420.6068,422.6067 -159.2631,-4 z"
             id="path7738" />
          <path
             id="path7740"
             d="m 4243.431,2273.0165 c 35.0492,-33.7944 12.4607,-66.7697 0,-98.5087 l 19,-0.1272 -1,41.8729 29,-2.1272 1,-40.1272 17.5087,0 420.6068,424.6067 -137.2631,0 z"
             style="opacity:1;fill:#c0a899;fill-opacity:0.96984923;fill-rule:evenodd;stroke:url(#radialGradient9298);stroke-width:0.10828928;stroke-linecap:butt;stroke-linejoin:miter;stroke-miterlimit:4;stroke-dasharray:none;stroke-opacity:1" />
          <path
             style="opacity:1;fill:#c0a899;fill-opacity:0.96984923;fill-rule:evenodd;stroke:url(#radialGradient9296);stroke-width:0.10828928;stroke-linecap:butt;stroke-linejoin:miter;stroke-miterlimit:4;stroke-dasharray:none;stroke-opacity:1"
             d="m 4337.431,2271.0165 1.0359,-92.6223 42.4926,4.2949 442.587,415.9163 -127.2631,0 z"
             id="path7742" />
          <path
             id="path7744"
             d="m 4406.5876,2273.0165 2,-97.0174 57.5087,8.5859 424.6068,414.0208 -127.2631,0 z"
             style="opacity:1;fill:#c0a899;fill-opacity:0.96984923;fill-rule:evenodd;stroke:url(#radialGradient9292);stroke-width:0.10828928;stroke-linecap:butt;stroke-linejoin:miter;stroke-miterlimit:4;stroke-dasharray:none;stroke-opacity:1" />
          <g
             style="fill:#484537"
             transform="matrix(0.04335304,0,0,0.04335304,2883.8201,2014.3712)"
             id="g7746">
            <path
               d="m 18001.358,5299.4578 q 0,209.0632 -70.932,350.9276 -70.932,138.131 -194.13,223.9963 -119.465,82.132 -287.462,119.4647 -164.264,33.5994 -354.661,33.5994 -153.064,0 -317.328,-18.6663 -164.264,-14.9331 -324.794,-48.5326 l 0,-2243.6964 q 130.664,-22.3996 287.461,-37.3327 156.798,-18.6664 309.862,-18.6664 261.329,0 425.593,55.9991 164.264,52.2658 257.596,141.8643 93.332,85.8653 126.931,194.1302 33.6,108.2649 33.6,216.5297 0,164.264 -82.132,291.1953 -78.399,126.9312 -212.797,201.5966 235.196,85.8653 317.328,231.4629 85.865,145.5976 85.865,306.1283 z m -1090.115,-313.5948 0,627.1897 q 48.533,7.4665 104.532,11.1998 59.732,3.7332 115.731,3.7332 78.399,0 153.064,-11.1998 74.666,-14.9331 130.665,-48.5325 59.732,-37.3327 97.065,-100.7984 37.333,-67.1989 37.333,-167.9972 0,-167.9972 -108.265,-238.9294 -104.532,-74.6654 -283.729,-74.6654 l -246.396,0 z m 179.197,-380.7938 q 175.464,0 265.062,-74.6654 89.599,-78.3987 89.599,-212.7965 0,-82.132 -26.133,-130.6645 -26.133,-52.2658 -70.932,-78.3987 -44.799,-29.8662 -104.532,-37.3328 -59.732,-11.1998 -123.198,-11.1998 -52.266,0 -108.265,3.7333 -55.999,3.7333 -100.798,11.1998 l 0,530.1246 179.197,0 z"
               style="font-style:normal;font-variant:normal;font-weight:bold;font-stretch:normal;font-size:6250px;font-family:'Ubuntu Mono';-inkscape-font-specification:'Ubuntu Mono Bold';text-align:center;text-anchor:middle;fill:#484537"
               id="path7752" />
            <path
               d="m 19457.334,5997.5797 -108.264,-533.8579 -615.99,0 -104.532,533.8579 -477.859,0 q 164.264,-683.1888 332.261,-1243.1796 167.998,-563.7241 324.795,-1067.7158 l 500.259,0 q 164.264,507.725 324.794,1078.9156 164.264,567.4574 317.328,1231.9798 l -492.792,0 z M 19046.675,4134.677 q -37.333,130.6645 -70.933,250.1292 -29.866,115.7314 -59.732,231.4628 -26.133,111.9982 -52.266,227.7296 -22.399,115.7315 -44.799,238.9294 l 451.726,0 q -22.4,-123.1979 -44.799,-238.9294 -22.4,-115.7314 -52.266,-227.7296 -26.133,-115.7314 -59.733,-231.4628 -29.866,-119.4647 -67.198,-250.1292 z"
               style="font-style:normal;font-variant:normal;font-weight:bold;font-stretch:normal;font-size:6250px;font-family:'Ubuntu Mono';-inkscape-font-specification:'Ubuntu Mono Bold';text-align:center;text-anchor:middle;fill:#484537"
               id="path7754" />
            <path
               d="m 21290.371,5997.5797 q -41.066,-130.6646 -119.465,-279.9954 -74.665,-153.0642 -167.997,-294.9285 -93.332,-145.5976 -197.863,-268.7956 -100.799,-126.9312 -194.13,-212.7965 l 0,1056.516 -459.193,0 0,-2310.8954 459.193,0 0,959.4509 q 82.131,-104.5316 171.73,-231.4628 89.599,-126.9313 167.997,-253.8625 82.132,-126.9313 149.331,-250.1293 67.199,-123.1979 111.998,-223.9963 l 518.925,0 q -52.266,100.7984 -126.931,231.4629 -70.932,126.9312 -164.264,268.7956 -93.332,138.131 -201.597,283.7286 -104.531,145.5976 -220.263,279.9954 115.732,111.9982 235.196,257.5958 119.465,145.5976 223.997,313.5948 108.264,164.264 194.13,339.7278 85.865,171.7305 138.131,335.9945 l -518.925,0 z"
               style="font-style:normal;font-variant:normal;font-weight:bold;font-stretch:normal;font-size:6250px;font-family:'Ubuntu Mono';-inkscape-font-specification:'Ubuntu Mono Bold';text-align:center;text-anchor:middle;fill:#484537"
               id="path7756" />
            <path
               d="m 22085.558,5997.5797 0,-2310.8954 1399.977,0 0,380.7938 -940.785,0 0,518.9248 817.587,0 0,380.7937 -817.587,0 0,649.5893 1022.917,0 0,380.7938 -1482.109,0 z"
               style="font-style:normal;font-variant:normal;font-weight:bold;font-stretch:normal;font-size:6250px;font-family:'Ubuntu Mono';-inkscape-font-specification:'Ubuntu Mono Bold';text-align:center;text-anchor:middle;fill:#484537"
               id="path7758" />
            <path
               d="m 24515.918,3660.5514 q 197.863,0 358.394,44.7993 160.531,44.7992 276.262,138.131 115.732,93.3318 175.464,238.9294 63.466,141.8644 63.466,335.9945 0,201.5967 -82.132,365.8607 -82.132,164.2639 -272.529,250.1292 63.465,97.0651 134.398,216.5298 70.932,115.7314 138.131,246.3959 67.199,126.9313 126.931,257.5958 63.465,126.9312 108.265,242.6627 l -481.592,0 q -85.866,-223.9964 -201.597,-429.3263 -111.998,-209.0632 -242.663,-421.8597 l -238.929,0 0,851.186 -459.193,0 0,-2277.2959 q 67.199,-14.9331 145.598,-26.1329 82.132,-14.9331 164.264,-18.6664 82.132,-7.4665 156.797,-11.1998 74.666,-3.7333 130.665,-3.7333 z m 406.927,754.121 q 0,-182.9304 -111.999,-268.7956 -111.998,-85.8653 -294.928,-85.8653 -26.133,0 -63.466,3.7333 -37.332,0 -74.665,7.4665 l 0,694.3886 100.798,0 q 235.196,0 339.728,-89.5985 104.532,-93.3318 104.532,-261.329 z"
               style="font-style:normal;font-variant:normal;font-weight:bold;font-stretch:normal;font-size:6250px;font-family:'Ubuntu Mono';-inkscape-font-specification:'Ubuntu Mono Bold';text-align:center;text-anchor:middle;fill:#484537"
               id="path7760" />
            <path
               d="m 26531.885,4743.2003 q 41.066,-85.8653 93.332,-216.5298 55.999,-130.6645 108.265,-276.2621 55.999,-145.5976 104.531,-294.9285 52.266,-149.3309 93.332,-268.7956 l 474.125,0 q -70.932,190.3969 -141.864,369.5939 -70.932,179.1971 -149.331,354.6609 -78.398,175.4638 -167.997,350.9275 -89.599,171.7306 -194.13,354.6609 l 0,881.0522 -462.926,0 0,-877.3189 q -205.33,-362.1274 -362.127,-705.5884 -153.064,-347.1943 -294.929,-727.9881 l 492.792,0 q 85.865,268.7956 190.397,548.791 104.532,276.2621 216.53,507.725 z"
               style="font-style:normal;font-variant:normal;font-weight:bold;font-stretch:normal;font-size:6250px;font-family:'Ubuntu Mono';-inkscape-font-specification:'Ubuntu Mono Bold';text-align:center;text-anchor:middle;fill:#484537"
               id="path7762" />
            <path
               d="m 30183.025,5661.5852 q 115.731,0 190.397,-22.3996 78.398,-26.1329 123.198,-67.1989 44.799,-44.7993 59.732,-97.0651 18.666,-55.9991 18.666,-111.9982 0,-70.9321 -41.066,-126.9312 -41.066,-55.9991 -104.531,-97.0651 -63.466,-44.7993 -141.865,-78.3987 -78.398,-37.3327 -156.797,-67.1989 -104.532,-37.3327 -216.53,-85.8652 -111.998,-48.5326 -205.33,-123.198 -89.598,-74.6655 -149.331,-182.9303 -59.732,-111.9982 -59.732,-276.2622 0,-324.7946 209.063,-507.725 212.797,-182.9303 582.391,-182.9303 212.796,0 369.594,48.5326 160.53,48.5325 268.795,108.2648 l -134.398,354.6609 q -93.331,-52.2658 -209.063,-89.5986 -111.998,-37.3327 -261.329,-37.3327 -365.861,0 -365.861,265.0623 0,67.1989 37.333,119.4647 37.333,48.5326 93.332,89.5986 59.732,37.3327 130.665,67.1989 74.665,29.8661 145.597,55.999 108.265,41.066 223.996,93.3318 119.465,48.5326 216.53,134.3978 100.799,82.132 164.264,209.0633 63.466,123.1979 63.466,313.5948 0,324.7947 -212.797,503.9917 -209.063,175.4638 -638.389,175.4638 -287.462,0 -459.193,-59.7324 -171.73,-63.4656 -257.595,-115.7314 l 134.397,-373.3272 q 100.799,59.7324 238.93,111.9982 141.864,52.2658 343.461,52.2658 z"
               style="font-style:normal;font-variant:normal;font-weight:bold;font-stretch:normal;font-size:6250px;font-family:'Ubuntu Mono';-inkscape-font-specification:'Ubuntu Mono Bold';text-align:center;text-anchor:middle;fill:#484537"
               id="path7764" />
            <path
               d="m 32882.18,3686.6843 0,2310.8954 -459.192,0 0,-1019.1833 -612.257,0 0,1019.1833 -459.192,0 0,-2310.8954 459.192,0 0,910.9184 612.257,0 0,-910.9184 459.192,0 z"
               style="font-style:normal;font-variant:normal;font-weight:bold;font-stretch:normal;font-size:6250px;font-family:'Ubuntu Mono';-inkscape-font-specification:'Ubuntu Mono Bold';text-align:center;text-anchor:middle;fill:#484537"
               id="path7766" />
            <path
               d="m 33617.635,4840.2654 q 0,167.9972 11.2,317.3281 14.933,145.5976 52.266,253.8625 41.066,108.2649 111.998,171.7305 70.932,63.4656 190.397,63.4656 115.731,0 186.663,-63.4656 74.666,-63.4656 111.998,-171.7305 41.066,-111.9982 52.266,-257.5958 14.933,-145.5976 14.933,-313.5948 0,-167.9973 -14.933,-313.5949 -11.2,-149.3309 -52.266,-257.5958 -37.332,-108.2648 -108.264,-171.7305 -70.933,-63.4656 -190.397,-63.4656 -119.465,0 -190.397,63.4656 -70.932,63.4657 -111.998,175.4638 -37.333,108.2649 -52.266,253.8625 -11.2,145.5976 -11.2,313.5949 z m -466.659,0 q 0,-597.3236 220.263,-899.7186 220.263,-306.1283 612.257,-306.1283 406.926,0 619.723,306.1283 212.796,302.395 212.796,899.7186 0,597.3235 -216.529,903.4518 -216.53,302.395 -612.257,302.395 -406.927,0 -623.456,-302.395 -212.797,-306.1283 -212.797,-903.4518 z"
               style="font-style:normal;font-variant:normal;font-weight:bold;font-stretch:normal;font-size:6250px;font-family:'Ubuntu Mono';-inkscape-font-specification:'Ubuntu Mono Bold';text-align:center;text-anchor:middle;fill:#484537"
               id="path7768" />
            <path
               d="m 35753.067,3660.5514 q 440.526,0 683.188,182.9303 242.663,179.1971 242.663,589.857 0,414.3932 -246.396,601.0568 -242.663,182.9303 -690.655,182.9303 l -164.264,0 0,780.2539 -459.193,0 0,-2281.0292 q 67.199,-14.9331 149.331,-26.1329 85.865,-11.1998 171.731,-14.9331 85.865,-7.4665 167.997,-11.1998 82.132,-3.7333 145.598,-3.7333 z m 52.265,399.4601 q -41.066,0 -115.731,3.7333 -70.932,0 -111.998,7.4665 l 0,746.6544 186.663,0 q 220.263,0 332.262,-85.8652 111.998,-89.5986 111.998,-302.3951 0,-201.5966 -111.998,-283.7286 -108.265,-85.8653 -291.196,-85.8653 z"
               style="font-style:normal;font-variant:normal;font-weight:bold;font-stretch:normal;font-size:6250px;font-family:'Ubuntu Mono';-inkscape-font-specification:'Ubuntu Mono Bold';text-align:center;text-anchor:middle;fill:#484537"
               id="path7770" />
          </g>
          <path
             style="fill:#000000;stroke:none"
             d="m 4898.2144,2594.739 a 1.5,1.5 0 0 1 -1.5,1.5 1.5,1.5 0 0 1 -1.5,-1.5 1.5,1.5 0 0 1 1.5,-1.5 1.5,1.5 0 0 1 1.5,1.5 z"
             id="circle7772" />
          <path
             style="fill:#000000;stroke:none"
             d="m 4898.2144,2594.739 a 1.5,1.5 0 0 1 -1.5,1.5 1.5,1.5 0 0 1 -1.5,-1.5 1.5,1.5 0 0 1 1.5,-1.5 1.5,1.5 0 0 1 1.5,1.5 z"
             id="circle7774" />
        </g>
      </g>
      <path
         id="path7748"
         style="font-style:normal;font-variant:normal;font-weight:bold;font-stretch:normal;font-size:6250px;line-height:125%;font-family:'Ubuntu Mono';-inkscape-font-specification:'Ubuntu Mono Bold';text-align:center;letter-spacing:0px;word-spacing:0px;text-anchor:middle;fill:#c9ae43;fill-opacity:1;stroke:none;stroke-width:1px;stroke-linecap:butt;stroke-linejoin:miter;stroke-opacity:1"
         d="m 9114.967,1155.8168 q -4.6965,0 -10.0055,-0.8168 -5.1048,-0.6125 -10.0055,-1.6335 -4.6964,-1.021 -8.7803,-2.2461 -4.0839,-1.2252 -6.3301,-2.2462 l 4.9007,-21.0319 q 4.6965,2.0419 12.0475,4.288 7.5551,2.2462 17.969,2.2462 12.8642,0 17.9691,-5.5133 5.309,-5.5132 5.309,-13.681 0,-10.0055 -7.9635,-13.8852 -7.9636,-4.0838 -20.2153,-4.0838 l -7.7593,0 0,-20.8278 9.3929,0 q 3.8797,0 7.7594,-0.8168 3.8796,-0.8168 6.9426,-2.6545 3.0629,-1.8378 4.9006,-4.9007 2.042,-3.0629 2.042,-7.7593 0,-6.9426 -4.2881,-10.8223 -4.0839,-4.0839 -11.4349,-4.0839 -7.1468,0 -14.2935,2.4503 -6.9426,2.2462 -12.0475,5.7175 l -8.9845,-18.3775 q 5.5132,-3.6755 14.4977,-7.351 9.1888,-3.8796 20.6237,-3.8796 10.6181,0 18.3774,2.6545 7.9635,2.6545 13.0684,7.5551 5.1048,4.6965 7.5552,11.2307 2.4503,6.5342 2.4503,14.0894 0,7.5552 -4.288,14.4978 -4.2881,6.9426 -11.4349,10.618 9.8013,4.0839 15.1103,12.0475 5.5133,7.9635 5.5133,18.99 0,8.7804 -2.8588,16.1313 -2.8586,7.351 -8.7803,12.8643 -5.9216,5.309 -15.1103,8.3719 -9.1888,2.8587 -21.8488,2.8587 z" />
      <path
         id="path7750"
         style="font-style:normal;font-variant:normal;font-weight:bold;font-stretch:normal;font-size:6250px;line-height:125%;font-family:'Ubuntu Mono';-inkscape-font-specification:'Ubuntu Mono Bold';text-align:center;letter-spacing:0px;word-spacing:0px;text-anchor:middle;fill:#c9ae43;fill-opacity:1;stroke:none;stroke-width:1px;stroke-linecap:butt;stroke-linejoin:miter;stroke-opacity:1"
         d="m 9209.713,1132.7429 q 1.0209,0.2042 2.2461,0.2042 1.2252,0 2.2462,0 8.5761,0 14.2935,-3.2671 5.9217,-3.2671 9.3929,-8.9845 3.6755,-5.7175 5.1049,-13.4768 1.6336,-7.9636 1.6336,-17.3565 0,-8.1678 -1.2252,-15.9271 -1.2252,-7.7594 -4.2881,-13.681 -3.0629,-5.9217 -8.3719,-9.3929 -5.3091,-3.6755 -13.6811,-3.6755 -1.6335,0 -3.6754,0.2042 -2.042,0 -3.6755,0.4083 l 0,84.9447 z m 60.4414,-42.8807 q 0,17.5607 -4.4923,30.0165 -4.288,12.2516 -12.0474,20.011 -7.7594,7.7594 -18.5817,11.4349 -10.6181,3.4712 -23.4823,3.4712 -6.7383,0 -13.2726,-0.8167 -6.33,-0.6126 -13.681,-2.2462 l 0,-123.3331 q 8.5762,-1.8377 16.1314,-2.4503 7.5552,-0.6126 14.0893,-0.6126 12.4559,0 22.6656,3.6755 10.4138,3.6755 17.5606,11.6391 7.1468,7.7593 11.0265,20.011 4.0839,12.0474 4.0839,29.1997 z" />
    </g>
  </g>
</svg>
