<?xml version="1.0" encoding="UTF-8" standalone="no"?>
<svg
   xmlns:dc="http://purl.org/dc/elements/1.1/"
   xmlns:cc="http://creativecommons.org/ns#"
   xmlns:rdf="http://www.w3.org/1999/02/22-rdf-syntax-ns#"
   xmlns:svg="http://www.w3.org/2000/svg"
   xmlns="http://www.w3.org/2000/svg"
   xmlns:sodipodi="http://sodipodi.sourceforge.net/DTD/sodipodi-0.dtd"
   xmlns:inkscape="http://www.inkscape.org/namespaces/inkscape"
   viewBox="0 0 789.89331 215.96527"
   version="1.1"
   id="svg4152"
   height="215.96527"
   width="789.89331"
   inkscape:version="0.91 r"
   sodipodi:docname="logotipo-sweet.svg">
  <sodipodi:namedview
     pagecolor="#ffffff"
     bordercolor="#666666"
     borderopacity="1"
     objecttolerance="10"
     gridtolerance="10"
     guidetolerance="10"
     inkscape:pageopacity="0"
     inkscape:pageshadow="2"
     inkscape:window-width="1366"
     inkscape:window-height="709"
     id="namedview23"
     showgrid="false"
     fit-margin-top="0"
     fit-margin-left="0"
     fit-margin-right="0"
     fit-margin-bottom="0"
     inkscape:zoom="0.44851479"
     inkscape:cx="776.51193"
     inkscape:cy="288.60307"
     inkscape:window-x="0"
     inkscape:window-y="1"
     inkscape:window-maximized="1"
     inkscape:current-layer="svg4152" />
  <defs
     id="defs4154" />
  <metadata
     id="metadata4157">
    <rdf:RDF>
      <cc:Work
         rdf:about="">
        <dc:format>image/svg+xml</dc:format>
        <dc:type
           rdf:resource="http://purl.org/dc/dcmitype/StillImage" />
        <dc:title></dc:title>
      </cc:Work>
    </rdf:RDF>
  </metadata>
  <path
     inkscape:connector-curvature="0"
     d="m -106.86893,-1022.6733 0,10.6201 q -4.76074,-2.4414 -9.88769,-3.6621 -5.12696,-1.2207 -10.62016,-1.2207 -8.3618,0 -12.5732,2.5634 -4.1504,2.5635 -4.1504,7.6905 0,3.9062 2.9907,6.1645 2.9907,2.19729 12.0239,4.21145 l 3.8453,0.85449 q 11.96286,2.56347 16.96774,7.26318 5.06592,4.63867 5.06592,13.00049 0,9.52148 -7.56836,15.07568 -7.50732,5.5542 -20.6909,5.5542 -5.4932,0 -11.4746,-1.09863 -5.9204,-1.0376 -12.5122,-3.17383 l 0,-11.59668 q 6.2255,3.23486 12.268,4.88281 6.0425,1.58692 11.9629,1.58692 7.9346,0 12.20706,-2.68555 4.27246,-2.74658 4.27246,-7.69043 0,-4.57764 -3.1128,-7.01904 -3.05175,-2.44141 -13.48882,-4.69971 l -3.9062,-0.91553 q -10.437,-2.19726 -15.0757,-6.71386 -4.6387,-4.57764 -4.6387,-12.51216 0,-9.6436 6.836,-14.8926 6.8359,-5.2491 19.4092,-5.2491 6.22555,0 11.71872,0.9156 5.49316,0.9155 10.13183,2.7466 z"
     style="font-style:normal;font-variant:normal;font-weight:500;font-stretch:normal;font-size:40px;line-height:125%;font-family:GeosansLight;-inkscape-font-specification:'GeosansLight Medium';letter-spacing:0px;word-spacing:0px;fill:#000000;fill-opacity:1;stroke:none;stroke-width:1px;stroke-linecap:butt;stroke-linejoin:miter;stroke-opacity:1"
     id="path4152" />
  <path
     inkscape:connector-curvature="0"
     d="m -91.793253,-1024.6875 11.23047,0 14.03809,53.34472 13.97705,-53.34472 13.24463,0 14.03809,53.34472 13.97705,-53.34472 11.23046019,0 -17.88330019,68.35937 -13.24463,0 -14.70947,-56.03027 -14.77051,56.03027 -13.24462,0 -17.88331,-68.35937 z"
     style="font-style:normal;font-variant:normal;font-weight:500;font-stretch:normal;font-size:40px;line-height:125%;font-family:GeosansLight;-inkscape-font-specification:'GeosansLight Medium';letter-spacing:0px;word-spacing:0px;fill:#000000;fill-opacity:1;stroke:none;stroke-width:1px;stroke-linecap:butt;stroke-linejoin:miter;stroke-opacity:1"
     id="path4154" />
  <path
     inkscape:connector-curvature="0"
     d="m 75.504117,-993.31543 0,5.49316 -51.63574,0 q 0.73242,11.59668 6.958,17.7002 6.28662,6.04248 17.45606,6.04248 6.46972,0 12.51221,-1.58692 6.10351,-1.58691 12.08496,-4.76074 l 0,10.62012 q -6.04248,2.56348 -12.39014,3.90625 -6.34766,1.34277 -12.87842,1.34277 -16.35742,0 -25.93994,-9.52148 -9.52148,-9.52149 -9.52148,-25.75684 0,-16.78467 9.0332,-26.61137 9.09424,-9.8877 24.4751,-9.8877 13.79394,0 21.78955,8.9112 8.05664,8.8501 8.05664,24.10887 z m -11.23047,-3.2959 q -0.12207,-9.21627 -5.18799,-14.70947 -5.00488,-5.4932 -13.30566,-5.4932 -9.39942,0 -15.07569,5.3101 -5.61523,5.3101 -6.46972,14.9536 l 40.03906,-0.061 z"
     style="font-style:normal;font-variant:normal;font-weight:500;font-stretch:normal;font-size:40px;line-height:125%;font-family:GeosansLight;-inkscape-font-specification:'GeosansLight Medium';letter-spacing:0px;word-spacing:0px;fill:#000000;fill-opacity:1;stroke:none;stroke-width:1px;stroke-linecap:butt;stroke-linejoin:miter;stroke-opacity:1"
     id="path4156" />
  <path
     inkscape:connector-curvature="0"
     d="m 152.40841,-993.31543 0,5.49316 -51.63574,0 q 0.73242,11.59668 6.95801,17.7002 6.28662,6.04248 17.45606,6.04248 6.46972,0 12.5122,-1.58692 6.10352,-1.58691 12.08496,-4.76074 l 0,10.62012 q -6.04248,2.56348 -12.39013,3.90625 -6.34766,1.34277 -12.87842,1.34277 -16.35742,0 -25.939943,-9.52148 -9.52149,-9.52149 -9.52149,-25.75684 0,-16.78467 9.03321,-26.61137 9.094233,-9.8877 24.475093,-9.8877 13.79395,0 21.78955,8.9112 8.05664,8.8501 8.05664,24.10887 z m -11.23046,-3.2959 q -0.12207,-9.21627 -5.18799,-14.70947 -5.00488,-5.4932 -13.30567,-5.4932 -9.39941,0 -15.07568,5.3101 -5.61523,5.3101 -6.46973,14.9536 l 40.03907,-0.061 z"
     style="font-style:normal;font-variant:normal;font-weight:500;font-stretch:normal;font-size:40px;line-height:125%;font-family:GeosansLight;-inkscape-font-specification:'GeosansLight Medium';letter-spacing:0px;word-spacing:0px;fill:#000000;fill-opacity:1;stroke:none;stroke-width:1px;stroke-linecap:butt;stroke-linejoin:miter;stroke-opacity:1"
     id="path4158" />
  <g
     id="g4190"
     transform="translate(876.93262,-754.11121)"
     style="fill:#333333">
    <g
       id="layer1"
       style="fill:#333333">
      <g
         id="text4718"
         style="font-style:normal;font-weight:normal;font-size:40px;line-height:125%;font-family:sans-serif;letter-spacing:0px;word-spacing:0px;fill:#333333;fill-opacity:1;stroke:none;stroke-width:1px;stroke-linecap:butt;stroke-linejoin:miter;stroke-opacity:1">
        <path
           id="path4160"
           style="font-size:250px;fill:#333333"
           d="m -583.72906,754.11121 154.1748,0 0,20.75195 -64.69727,0 0,161.49902 -24.78027,0 0,-161.49902 -64.69726,0 0,-20.75195 z"
           inkscape:connector-curvature="0" />
      </g>
      <text
         xml:space="preserve"
         style="font-style:normal;font-weight:normal;font-size:40px;line-height:125%;font-family:sans-serif;letter-spacing:0px;word-spacing:0px;fill:#333333;fill-opacity:1;stroke:none;stroke-width:1px;stroke-linecap:butt;stroke-linejoin:miter;stroke-opacity:1"
         x="-502.85715"
         y="970.07648"
         id="text4730"
         sodipodi:linespacing="125%"><tspan
           id="tspan4732"
           x="-502.85715"
           y="970.07648"
           style="font-size:125px;fill:#333333"><tspan
             style="font-size:250px;fill:#333333"
             id="tspan4734">F</tspan><tspan
             style="font-style:normal;font-variant:normal;font-weight:500;font-stretch:normal;font-family:GeosansLight;-inkscape-font-specification:'GeosansLight Medium';fill:#333333"
             id="tspan4736" /></tspan></text>
      <text
         sodipodi:linespacing="125%"
         xml:space="preserve"
         style="font-style:normal;font-weight:normal;font-size:40px;line-height:125%;font-family:sans-serif;letter-spacing:0px;word-spacing:0px;fill:#333333;fill-opacity:1;stroke:none;stroke-width:1px;stroke-linecap:butt;stroke-linejoin:miter;stroke-opacity:1"
         x="-362.85715"
         y="918.58734"
         id="text4746"><tspan
           id="tspan4748"
           x="-362.85715"
           y="918.58734"
           style="font-style:normal;font-variant:normal;font-weight:bold;font-stretch:normal;font-size:125px;font-family:Sawasdee;-inkscape-font-specification:'Sawasdee Bold';fill:#333333">lavor</tspan></text>
    </g>
    <text
       sodipodi:linespacing="125%"
       id="text4186"
       y="918.58734"
       x="-882.91406"
       style="font-style:normal;font-weight:normal;font-size:80px;line-height:125%;font-family:sans-serif;letter-spacing:0px;word-spacing:0px;fill:#333333;fill-opacity:1;stroke:none;stroke-width:1px;stroke-linecap:butt;stroke-linejoin:miter;stroke-opacity:1"
       xml:space="preserve"><tspan
         style="font-style:normal;font-variant:normal;font-weight:bold;font-stretch:normal;font-size:125px;font-family:Sawasdee;-inkscape-font-specification:'Sawasdee Bold';fill:#333333"
         y="918.58734"
         x="-882.91406"
         id="tspan4188"
         sodipodi:role="line">swee</tspan></text>
  </g>
</svg>
